<mxfile host="Electron" agent="Mozilla/5.0 (Windows NT 10.0; Win64; x64) AppleWebKit/537.36 (KHTML, like Gecko) draw.io/27.0.9 Chrome/134.0.6998.205 Electron/35.4.0 Safari/537.36" version="27.0.9">
  <diagram name="Page-1" id="Yvh4AdQ1gagWU2hSKg-S">
    <mxGraphModel dx="314" dy="375" grid="1" gridSize="10" guides="1" tooltips="1" connect="1" arrows="1" fold="1" page="1" pageScale="1" pageWidth="1100" pageHeight="850" math="0" shadow="0">
      <root>
        <mxCell id="0" />
        <mxCell id="1" parent="0" />
        <mxCell id="vAyuxWA_YO4ddhJwpJ2V-1" value="&lt;b&gt;&lt;font style=&quot;font-size: 24px;&quot;&gt;Data Flow Diagram&lt;/font&gt;&lt;/b&gt;" style="rounded=0;whiteSpace=wrap;html=1;fillColor=none;strokeColor=none;" parent="1" vertex="1">
          <mxGeometry x="20" y="50" width="250" height="40" as="geometry" />
        </mxCell>
        <mxCell id="vAyuxWA_YO4ddhJwpJ2V-2" value="" style="rounded=0;whiteSpace=wrap;html=1;dashed=1;" parent="1" vertex="1">
          <mxGeometry x="70" y="160" width="130" height="360" as="geometry" />
        </mxCell>
        <mxCell id="vAyuxWA_YO4ddhJwpJ2V-3" value="&lt;b&gt;&lt;font style=&quot;font-size: 20px;&quot;&gt;Sources&lt;/font&gt;&lt;/b&gt;" style="rounded=0;whiteSpace=wrap;html=1;strokeColor=none;" parent="1" vertex="1">
          <mxGeometry x="87.5" y="140" width="95" height="30" as="geometry" />
        </mxCell>
        <mxCell id="vAyuxWA_YO4ddhJwpJ2V-13" style="edgeStyle=orthogonalEdgeStyle;rounded=0;orthogonalLoop=1;jettySize=auto;html=1;entryX=0;entryY=0.5;entryDx=0;entryDy=0;" parent="1" source="vAyuxWA_YO4ddhJwpJ2V-4" target="vAyuxWA_YO4ddhJwpJ2V-8" edge="1">
          <mxGeometry relative="1" as="geometry" />
        </mxCell>
        <mxCell id="vAyuxWA_YO4ddhJwpJ2V-15" style="edgeStyle=orthogonalEdgeStyle;rounded=0;orthogonalLoop=1;jettySize=auto;html=1;entryX=0;entryY=0.5;entryDx=0;entryDy=0;" parent="1" source="vAyuxWA_YO4ddhJwpJ2V-4" target="vAyuxWA_YO4ddhJwpJ2V-9" edge="1">
          <mxGeometry relative="1" as="geometry" />
        </mxCell>
        <mxCell id="vAyuxWA_YO4ddhJwpJ2V-4" value="&lt;b&gt;CRM&lt;/b&gt;" style="image;aspect=fixed;html=1;points=[];align=center;fontSize=12;image=img/lib/azure2/general/Folder_Blank.svg;" parent="1" vertex="1">
          <mxGeometry x="105.36" y="255" width="44.64" height="36.23" as="geometry" />
        </mxCell>
        <mxCell id="vAyuxWA_YO4ddhJwpJ2V-19" style="edgeStyle=orthogonalEdgeStyle;rounded=0;orthogonalLoop=1;jettySize=auto;html=1;entryX=0;entryY=0.5;entryDx=0;entryDy=0;" parent="1" source="vAyuxWA_YO4ddhJwpJ2V-5" target="vAyuxWA_YO4ddhJwpJ2V-16" edge="1">
          <mxGeometry relative="1" as="geometry" />
        </mxCell>
        <mxCell id="vAyuxWA_YO4ddhJwpJ2V-20" style="edgeStyle=orthogonalEdgeStyle;rounded=0;orthogonalLoop=1;jettySize=auto;html=1;entryX=0;entryY=0.5;entryDx=0;entryDy=0;" parent="1" source="vAyuxWA_YO4ddhJwpJ2V-5" target="vAyuxWA_YO4ddhJwpJ2V-18" edge="1">
          <mxGeometry relative="1" as="geometry" />
        </mxCell>
        <mxCell id="vAyuxWA_YO4ddhJwpJ2V-21" style="edgeStyle=orthogonalEdgeStyle;rounded=0;orthogonalLoop=1;jettySize=auto;html=1;entryX=0;entryY=0.5;entryDx=0;entryDy=0;" parent="1" source="vAyuxWA_YO4ddhJwpJ2V-5" target="vAyuxWA_YO4ddhJwpJ2V-17" edge="1">
          <mxGeometry relative="1" as="geometry" />
        </mxCell>
        <mxCell id="vAyuxWA_YO4ddhJwpJ2V-5" value="&lt;b&gt;ERP&lt;/b&gt;" style="image;aspect=fixed;html=1;points=[];align=center;fontSize=12;image=img/lib/azure2/general/Folder_Blank.svg;" parent="1" vertex="1">
          <mxGeometry x="105.36" y="407.5" width="49.29" height="40" as="geometry" />
        </mxCell>
        <mxCell id="vAyuxWA_YO4ddhJwpJ2V-6" value="" style="rounded=1;whiteSpace=wrap;html=1;fillStyle=hatch;fillColor=#ffe6cc;strokeColor=#d79b00;" parent="1" vertex="1">
          <mxGeometry x="275" y="180" width="180" height="340" as="geometry" />
        </mxCell>
        <mxCell id="vAyuxWA_YO4ddhJwpJ2V-7" value="&lt;b&gt;&lt;font style=&quot;font-size: 20px;&quot;&gt;Bronze Layer&lt;/font&gt;&lt;/b&gt;" style="rounded=0;whiteSpace=wrap;html=1;fillColor=#ffe6cc;strokeColor=#d79b00;" parent="1" vertex="1">
          <mxGeometry x="290" y="135" width="150" height="35" as="geometry" />
        </mxCell>
        <mxCell id="eR_c4iYf6t-zIN5fkSR2-9" style="edgeStyle=orthogonalEdgeStyle;rounded=0;orthogonalLoop=1;jettySize=auto;html=1;" parent="1" source="vAyuxWA_YO4ddhJwpJ2V-8" target="eR_c4iYf6t-zIN5fkSR2-3" edge="1">
          <mxGeometry relative="1" as="geometry" />
        </mxCell>
        <mxCell id="vAyuxWA_YO4ddhJwpJ2V-8" value="&lt;font style=&quot;font-size: 15px;&quot;&gt;crm_cust_info&lt;/font&gt;" style="rounded=0;whiteSpace=wrap;html=1;fillColor=#ffe6cc;strokeColor=#d79b00;" parent="1" vertex="1">
          <mxGeometry x="290" y="210" width="150" height="35" as="geometry" />
        </mxCell>
        <mxCell id="eR_c4iYf6t-zIN5fkSR2-11" style="edgeStyle=orthogonalEdgeStyle;rounded=0;orthogonalLoop=1;jettySize=auto;html=1;entryX=0;entryY=0.5;entryDx=0;entryDy=0;" parent="1" source="vAyuxWA_YO4ddhJwpJ2V-9" target="eR_c4iYf6t-zIN5fkSR2-4" edge="1">
          <mxGeometry relative="1" as="geometry" />
        </mxCell>
        <mxCell id="vAyuxWA_YO4ddhJwpJ2V-9" value="&lt;font style=&quot;font-size: 15px;&quot;&gt;crm_sales_details&lt;/font&gt;" style="rounded=0;whiteSpace=wrap;html=1;fillColor=#ffe6cc;strokeColor=#d79b00;" parent="1" vertex="1">
          <mxGeometry x="290" y="310" width="150" height="35" as="geometry" />
        </mxCell>
        <mxCell id="eR_c4iYf6t-zIN5fkSR2-10" style="edgeStyle=orthogonalEdgeStyle;rounded=0;orthogonalLoop=1;jettySize=auto;html=1;entryX=0;entryY=0.5;entryDx=0;entryDy=0;" parent="1" source="vAyuxWA_YO4ddhJwpJ2V-10" target="eR_c4iYf6t-zIN5fkSR2-5" edge="1">
          <mxGeometry relative="1" as="geometry" />
        </mxCell>
        <mxCell id="vAyuxWA_YO4ddhJwpJ2V-10" value="&lt;font style=&quot;font-size: 15px;&quot;&gt;crm_prd_info&lt;/font&gt;" style="rounded=0;whiteSpace=wrap;html=1;fillColor=#ffe6cc;strokeColor=#d79b00;" parent="1" vertex="1">
          <mxGeometry x="290" y="260" width="150" height="35" as="geometry" />
        </mxCell>
        <mxCell id="vAyuxWA_YO4ddhJwpJ2V-14" style="edgeStyle=orthogonalEdgeStyle;rounded=0;orthogonalLoop=1;jettySize=auto;html=1;" parent="1" source="vAyuxWA_YO4ddhJwpJ2V-4" edge="1">
          <mxGeometry relative="1" as="geometry">
            <mxPoint x="290" y="273" as="targetPoint" />
          </mxGeometry>
        </mxCell>
        <mxCell id="eR_c4iYf6t-zIN5fkSR2-12" style="edgeStyle=orthogonalEdgeStyle;rounded=0;orthogonalLoop=1;jettySize=auto;html=1;entryX=0;entryY=0.5;entryDx=0;entryDy=0;" parent="1" source="vAyuxWA_YO4ddhJwpJ2V-16" target="eR_c4iYf6t-zIN5fkSR2-6" edge="1">
          <mxGeometry relative="1" as="geometry" />
        </mxCell>
        <mxCell id="vAyuxWA_YO4ddhJwpJ2V-16" value="&lt;font style=&quot;font-size: 15px;&quot;&gt;erp_cust_az12&lt;/font&gt;" style="rounded=0;whiteSpace=wrap;html=1;fillColor=#ffe6cc;strokeColor=#d79b00;" parent="1" vertex="1">
          <mxGeometry x="290" y="360" width="150" height="35" as="geometry" />
        </mxCell>
        <mxCell id="eR_c4iYf6t-zIN5fkSR2-14" style="edgeStyle=orthogonalEdgeStyle;rounded=0;orthogonalLoop=1;jettySize=auto;html=1;entryX=0;entryY=0.5;entryDx=0;entryDy=0;" parent="1" source="vAyuxWA_YO4ddhJwpJ2V-17" target="eR_c4iYf6t-zIN5fkSR2-7" edge="1">
          <mxGeometry relative="1" as="geometry" />
        </mxCell>
        <mxCell id="vAyuxWA_YO4ddhJwpJ2V-17" value="&lt;font style=&quot;font-size: 15px;&quot;&gt;erp_px_cat_g1v2&lt;/font&gt;" style="rounded=0;whiteSpace=wrap;html=1;fillColor=#ffe6cc;strokeColor=#d79b00;" parent="1" vertex="1">
          <mxGeometry x="290" y="460" width="150" height="35" as="geometry" />
        </mxCell>
        <mxCell id="eR_c4iYf6t-zIN5fkSR2-13" style="edgeStyle=orthogonalEdgeStyle;rounded=0;orthogonalLoop=1;jettySize=auto;html=1;entryX=0;entryY=0.5;entryDx=0;entryDy=0;" parent="1" source="vAyuxWA_YO4ddhJwpJ2V-18" target="eR_c4iYf6t-zIN5fkSR2-8" edge="1">
          <mxGeometry relative="1" as="geometry" />
        </mxCell>
        <mxCell id="vAyuxWA_YO4ddhJwpJ2V-18" value="&lt;font style=&quot;font-size: 15px;&quot;&gt;erp_loc_a101&lt;/font&gt;" style="rounded=0;whiteSpace=wrap;html=1;fillColor=#ffe6cc;strokeColor=#d79b00;" parent="1" vertex="1">
          <mxGeometry x="290" y="410" width="150" height="35" as="geometry" />
        </mxCell>
        <mxCell id="eR_c4iYf6t-zIN5fkSR2-1" value="" style="rounded=1;whiteSpace=wrap;html=1;fillStyle=hatch;fillColor=#f5f5f5;strokeColor=#666666;fontColor=#333333;" parent="1" vertex="1">
          <mxGeometry x="520" y="180" width="180" height="340" as="geometry" />
        </mxCell>
        <mxCell id="eR_c4iYf6t-zIN5fkSR2-2" value="&lt;b&gt;&lt;font style=&quot;font-size: 20px;&quot;&gt;Silver Layer&lt;/font&gt;&lt;/b&gt;" style="rounded=0;whiteSpace=wrap;html=1;fillColor=#f5f5f5;strokeColor=#666666;fontColor=#333333;" parent="1" vertex="1">
          <mxGeometry x="535" y="135" width="150" height="35" as="geometry" />
        </mxCell>
        <mxCell id="QuB2CByMgv0xka8zOflv-11" style="edgeStyle=orthogonalEdgeStyle;rounded=1;orthogonalLoop=1;jettySize=auto;html=1;entryX=0;entryY=0.5;entryDx=0;entryDy=0;curved=0;jumpStyle=gap;endArrow=classic;endFill=1;" edge="1" parent="1" source="eR_c4iYf6t-zIN5fkSR2-3" target="QuB2CByMgv0xka8zOflv-5">
          <mxGeometry relative="1" as="geometry">
            <Array as="points">
              <mxPoint x="720" y="228" />
              <mxPoint x="720" y="350" />
            </Array>
          </mxGeometry>
        </mxCell>
        <mxCell id="eR_c4iYf6t-zIN5fkSR2-3" value="&lt;font style=&quot;font-size: 15px;&quot;&gt;crm_cust_info&lt;/font&gt;" style="rounded=0;whiteSpace=wrap;html=1;fillColor=#f5f5f5;strokeColor=#666666;fontColor=#333333;" parent="1" vertex="1">
          <mxGeometry x="535" y="210" width="150" height="35" as="geometry" />
        </mxCell>
        <mxCell id="QuB2CByMgv0xka8zOflv-10" style="edgeStyle=orthogonalEdgeStyle;rounded=1;orthogonalLoop=1;jettySize=auto;html=1;entryX=0;entryY=0.5;entryDx=0;entryDy=0;curved=0;jumpStyle=gap;endArrow=classic;endFill=1;" edge="1" parent="1" source="eR_c4iYf6t-zIN5fkSR2-4" target="QuB2CByMgv0xka8zOflv-3">
          <mxGeometry relative="1" as="geometry" />
        </mxCell>
        <mxCell id="eR_c4iYf6t-zIN5fkSR2-4" value="&lt;font style=&quot;font-size: 15px;&quot;&gt;crm_sales_details&lt;/font&gt;" style="rounded=0;whiteSpace=wrap;html=1;fillColor=#f5f5f5;strokeColor=#666666;fontColor=#333333;" parent="1" vertex="1">
          <mxGeometry x="535" y="310" width="150" height="35" as="geometry" />
        </mxCell>
        <mxCell id="QuB2CByMgv0xka8zOflv-12" style="edgeStyle=orthogonalEdgeStyle;rounded=1;orthogonalLoop=1;jettySize=auto;html=1;entryX=0;entryY=0.75;entryDx=0;entryDy=0;curved=0;jumpStyle=gap;endArrow=classic;endFill=1;" edge="1" parent="1" source="eR_c4iYf6t-zIN5fkSR2-5" target="QuB2CByMgv0xka8zOflv-4">
          <mxGeometry relative="1" as="geometry">
            <Array as="points">
              <mxPoint x="750" y="278" />
              <mxPoint x="750" y="456" />
            </Array>
          </mxGeometry>
        </mxCell>
        <mxCell id="eR_c4iYf6t-zIN5fkSR2-5" value="&lt;font style=&quot;font-size: 15px;&quot;&gt;crm_prd_info&lt;/font&gt;" style="rounded=0;whiteSpace=wrap;html=1;fillColor=#f5f5f5;strokeColor=#666666;fontColor=#333333;" parent="1" vertex="1">
          <mxGeometry x="535" y="260" width="150" height="35" as="geometry" />
        </mxCell>
        <mxCell id="QuB2CByMgv0xka8zOflv-13" style="edgeStyle=orthogonalEdgeStyle;rounded=1;orthogonalLoop=1;jettySize=auto;html=1;entryX=0;entryY=0.5;entryDx=0;entryDy=0;curved=0;jumpStyle=gap;endArrow=classic;endFill=1;" edge="1" parent="1" source="eR_c4iYf6t-zIN5fkSR2-6" target="QuB2CByMgv0xka8zOflv-5">
          <mxGeometry relative="1" as="geometry" />
        </mxCell>
        <mxCell id="eR_c4iYf6t-zIN5fkSR2-6" value="&lt;font style=&quot;font-size: 15px;&quot;&gt;erp_cust_az12&lt;/font&gt;" style="rounded=0;whiteSpace=wrap;html=1;fillColor=#f5f5f5;strokeColor=#666666;fontColor=#333333;" parent="1" vertex="1">
          <mxGeometry x="535" y="360" width="150" height="35" as="geometry" />
        </mxCell>
        <mxCell id="QuB2CByMgv0xka8zOflv-15" style="edgeStyle=orthogonalEdgeStyle;rounded=1;orthogonalLoop=1;jettySize=auto;html=1;entryX=0;entryY=0.75;entryDx=0;entryDy=0;curved=0;jumpStyle=gap;endArrow=classic;endFill=1;" edge="1" parent="1" source="eR_c4iYf6t-zIN5fkSR2-7" target="QuB2CByMgv0xka8zOflv-4">
          <mxGeometry relative="1" as="geometry" />
        </mxCell>
        <mxCell id="eR_c4iYf6t-zIN5fkSR2-7" value="&lt;font style=&quot;font-size: 15px;&quot;&gt;erp_px_cat_g1v2&lt;/font&gt;" style="rounded=0;whiteSpace=wrap;html=1;fillColor=#f5f5f5;strokeColor=#666666;fontColor=#333333;" parent="1" vertex="1">
          <mxGeometry x="535" y="460" width="150" height="35" as="geometry" />
        </mxCell>
        <mxCell id="QuB2CByMgv0xka8zOflv-14" style="edgeStyle=orthogonalEdgeStyle;rounded=1;orthogonalLoop=1;jettySize=auto;html=1;entryX=0;entryY=0.5;entryDx=0;entryDy=0;curved=0;jumpStyle=gap;endArrow=classic;endFill=1;" edge="1" parent="1" source="eR_c4iYf6t-zIN5fkSR2-8" target="QuB2CByMgv0xka8zOflv-5">
          <mxGeometry relative="1" as="geometry" />
        </mxCell>
        <mxCell id="eR_c4iYf6t-zIN5fkSR2-8" value="&lt;font style=&quot;font-size: 15px;&quot;&gt;erp_loc_a101&lt;/font&gt;" style="rounded=0;whiteSpace=wrap;html=1;fillColor=#f5f5f5;strokeColor=#666666;fontColor=#333333;" parent="1" vertex="1">
          <mxGeometry x="535" y="410" width="150" height="35" as="geometry" />
        </mxCell>
        <mxCell id="QuB2CByMgv0xka8zOflv-1" value="" style="rounded=1;whiteSpace=wrap;html=1;fillStyle=hatch;fillColor=#fff2cc;strokeColor=#d6b656;" vertex="1" parent="1">
          <mxGeometry x="770" y="180" width="180" height="340" as="geometry" />
        </mxCell>
        <mxCell id="QuB2CByMgv0xka8zOflv-2" value="&lt;b&gt;&lt;font style=&quot;font-size: 20px;&quot;&gt;Gold Layer&lt;/font&gt;&lt;/b&gt;" style="rounded=0;whiteSpace=wrap;html=1;fillColor=#fff2cc;strokeColor=#d6b656;" vertex="1" parent="1">
          <mxGeometry x="785" y="135" width="150" height="35" as="geometry" />
        </mxCell>
        <mxCell id="QuB2CByMgv0xka8zOflv-3" value="&lt;font style=&quot;font-size: 15px;&quot;&gt;fact_sales&lt;/font&gt;" style="rounded=0;whiteSpace=wrap;html=1;fillColor=#fff2cc;strokeColor=#d6b656;" vertex="1" parent="1">
          <mxGeometry x="785" y="225" width="150" height="35" as="geometry" />
        </mxCell>
        <mxCell id="QuB2CByMgv0xka8zOflv-4" value="&lt;font style=&quot;font-size: 15px;&quot;&gt;dim_products&lt;/font&gt;" style="rounded=0;whiteSpace=wrap;html=1;fillColor=#fff2cc;strokeColor=#d6b656;" vertex="1" parent="1">
          <mxGeometry x="785" y="430" width="150" height="35" as="geometry" />
        </mxCell>
        <mxCell id="QuB2CByMgv0xka8zOflv-5" value="&lt;font style=&quot;font-size: 15px;&quot;&gt;dim_customers&lt;/font&gt;" style="rounded=0;whiteSpace=wrap;html=1;fillColor=#fff2cc;strokeColor=#d6b656;" vertex="1" parent="1">
          <mxGeometry x="785" y="332.5" width="150" height="35" as="geometry" />
        </mxCell>
      </root>
    </mxGraphModel>
  </diagram>
</mxfile>
